<svg width="0" height="0" class="hidden">
  <symbol xmlns="http://www.w3.org/2000/svg" xmlns:xlink="http://www.w3.org/1999/xlink" version="1.1" xml:space="preserve" viewBox="0 0 256 256" id="download">
    <defs></defs>
    <g transform="translate(1.4065934065934016 1.4065934065934016) scale(2.81 2.81)">
      <path d="M 69.358 42.474 c -1.687 -1.423 -4.211 -1.209 -5.636 0.479 L 49 60.412 V 4 c 0 -2.209 -1.791 -4 -4 -4 s -4 1.791 -4 4 v 56.412 L 26.277 42.953 c -1.425 -1.69 -3.948 -1.903 -5.637 -0.479 c -1.689 1.424 -1.903 3.948 -0.479 5.637 l 21.781 25.829 c 0.033 0.039 0.075 0.067 0.11 0.104 c 0.114 0.125 0.237 0.238 0.366 0.348 c 0.082 0.07 0.16 0.141 0.247 0.204 c 0.145 0.105 0.3 0.192 0.459 0.277 c 0.083 0.044 0.161 0.096 0.248 0.134 c 0.186 0.083 0.382 0.143 0.581 0.197 c 0.07 0.019 0.135 0.049 0.206 0.064 C 44.43 75.326 44.711 75.36 45 75.36 s 0.57 -0.034 0.842 -0.093 c 0.071 -0.015 0.136 -0.045 0.205 -0.064 c 0.199 -0.054 0.396 -0.114 0.581 -0.197 c 0.086 -0.038 0.164 -0.09 0.247 -0.134 c 0.159 -0.085 0.314 -0.172 0.459 -0.277 c 0.087 -0.063 0.165 -0.134 0.247 -0.204 c 0.129 -0.11 0.252 -0.223 0.366 -0.348 c 0.034 -0.038 0.077 -0.065 0.11 -0.104 l 21.78 -25.829 C 71.263 46.422 71.048 43.898 69.358 42.474 z" transform=" matrix(1 0 0 1 0 0) " stroke-linecap="round"></path>
      <path d="M 76.558 90 H 13.443 c -2.209 0 -4 -1.791 -4 -4 s 1.791 -4 4 -4 h 63.115 c 2.209 0 4 1.791 4 4 S 78.767 90 76.558 90 z" transform=" matrix(1 0 0 1 0 0) " stroke-linecap="round"></path>
    </g>
  </symbol>
  <symbol version="1.0" xmlns="http://www.w3.org/2000/svg" preserveAspectRatio="xMidYMid meet" viewBox="0 0 512.000000 512.000000" id="feedback">
    <g transform="translate(0.000000,512.000000) scale(0.100000,-0.100000)" fill="#000000" stroke="none">
      <path d="M363 4900 c-170 -25 -321 -170 -353 -339 -7 -35 -10 -778 -10 -2160
0 -2073 0 -2106 20 -2138 22 -37 69 -54 115 -41 21 5 191 169 555 533 l525
525 1545 0 c1297 0 1555 3 1605 14 143 34 256 139 306 284 18 53 19 98 19 975
l0 921 180 181 c142 144 185 194 205 238 76 165 48 335 -76 463 -63 64 -137
101 -232 116 l-75 12 -5 54 c-12 111 -102 248 -203 307 -110 64 60 59 -2104
61 -1081 1 -1988 -2 -2017 -6z m3992 -229 c79 -36 125 -113 125 -211 l0 -46
-605 -604 -605 -605 -1071 -5 -1071 -5 -29 -33 c-41 -46 -40 -99 2 -141 l31
-31 979 0 c538 0 979 -1 979 -3 0 -2 -22 -115 -50 -252 -27 -137 -50 -266 -50
-288 0 -53 45 -97 99 -97 29 0 437 77 561 105 15 4 182 163 427 408 l403 402
0 -800 c0 -755 -1 -802 -19 -840 -22 -49 -65 -93 -111 -114 -32 -14 -188 -16
-1630 -19 l-1594 -2 -458 -458 -458 -457 2 1980 3 1980 22 42 c23 43 69 84
113 102 16 6 725 10 1995 10 1885 1 1972 0 2010 -18z m445 -426 c30 -16 73
-60 90 -95 18 -34 16 -119 -4 -161 -9 -19 -56 -74 -104 -122 l-87 -87 -138
138 -138 138 99 96 c82 79 107 98 143 106 49 11 101 6 139 -13z m-744 -1104
l-483 -483 -168 -34 c-93 -19 -170 -32 -172 -31 -1 2 12 79 31 172 l34 168
483 483 484 484 137 -137 138 -138 -484 -484z"></path>
      <path d="M1134 3830 c-35 -14 -64 -59 -64 -101 0 -29 7 -45 31 -68 l31 -31
1215 0 1215 0 29 29 c54 54 36 146 -33 170 -38 13 -2392 14 -2424 1z"></path>
      <path d="M1134 2550 c-35 -14 -64 -59 -64 -101 0 -29 7 -45 31 -68 l31 -31
678 0 678 0 31 26 c38 32 49 80 27 123 -33 63 -9 61 -733 60 -362 0 -668 -4
-679 -9z"></path>
    </g>
  </symbol>
  <symbol xmlns="http://www.w3.org/2000/svg" xmlns:xlink="http://www.w3.org/1999/xlink" version="1.1" xml:space="preserve" viewBox="0 0 256 256" id="help">
    <defs></defs>
    <g transform="translate(1.4065934065934016 1.4065934065934016) scale(2.81 2.81)">
      <path d="M 45 58.88 c -2.209 0 -4 -1.791 -4 -4 v -4.543 c 0 -1.101 0.454 -2.153 1.254 -2.908 l 8.083 -7.631 c 1.313 -1.377 2.035 -3.181 2.035 -5.087 v -0.302 c 0 -2.005 -0.791 -3.881 -2.228 -5.281 c -1.436 -1.399 -3.321 -2.14 -5.342 -2.089 c -3.957 0.102 -7.175 3.523 -7.175 7.626 c 0 2.209 -1.791 4 -4 4 s -4 -1.791 -4 -4 c 0 -8.402 6.715 -15.411 14.969 -15.623 c 4.183 -0.109 8.138 1.439 11.131 4.357 c 2.995 2.918 4.645 6.829 4.645 11.01 v 0.302 c 0 4.027 -1.546 7.834 -4.354 10.72 c -0.04 0.041 -0.08 0.081 -0.121 0.12 L 49 52.062 v 2.818 C 49 57.089 47.209 58.88 45 58.88 z" transform=" matrix(1 0 0 1 0 0) " stroke-linecap="round"></path>
      <path d="M 45 71.96 c -1.32 0 -2.61 -0.53 -3.54 -1.46 c -0.23 -0.23 -0.43 -0.49 -0.62 -0.76 c -0.18 -0.271 -0.33 -0.561 -0.46 -0.86 c -0.12 -0.311 -0.22 -0.62 -0.28 -0.94 c -0.07 -0.32 -0.1 -0.65 -0.1 -0.98 c 0 -0.32 0.03 -0.65 0.1 -0.97 c 0.06 -0.32 0.16 -0.641 0.28 -0.94 c 0.13 -0.3 0.28 -0.59 0.46 -0.86 c 0.19 -0.279 0.39 -0.529 0.62 -0.76 c 1.16 -1.16 2.89 -1.7 4.52 -1.37 c 0.32 0.07 0.629 0.16 0.93 0.29 c 0.3 0.12 0.59 0.28 0.859 0.46 c 0.28 0.181 0.53 0.391 0.761 0.62 c 0.239 0.23 0.439 0.48 0.63 0.76 c 0.18 0.271 0.33 0.561 0.46 0.86 c 0.12 0.3 0.22 0.62 0.279 0.94 C 49.97 66.31 50 66.64 50 66.96 c 0 0.33 -0.03 0.66 -0.101 0.979 c -0.06 0.32 -0.159 0.63 -0.279 0.94 c -0.13 0.3 -0.28 0.59 -0.46 0.86 c -0.19 0.27 -0.391 0.529 -0.63 0.76 c -0.23 0.229 -0.48 0.439 -0.761 0.62 c -0.27 0.18 -0.56 0.34 -0.859 0.46 c -0.301 0.13 -0.61 0.22 -0.93 0.279 C 45.65 71.93 45.33 71.96 45 71.96 z" transform=" matrix(1 0 0 1 0 0) " stroke-linecap="round"></path>
      <path d="M 45 90 C 20.187 90 0 69.813 0 45 S 20.187 0 45 0 s 45 20.187 45 45 S 69.813 90 45 90 z M 45 8 C 24.598 8 8 24.598 8 45 s 16.598 37 37 37 s 37 -16.598 37 -37 S 65.402 8 45 8 z" transform=" matrix(1 0 0 1 0 0) " stroke-linecap="round"></path>
    </g>
  </symbol>
  <symbol xmlns="http://www.w3.org/2000/svg" xmlns:xlink="http://www.w3.org/1999/xlink" version="1.1" xml:space="preserve" viewBox="0 0 256 256" id="history">
    <defs></defs>
    <g transform="translate(1.4065934065934016 1.4065934065934016) scale(2.81 2.81)">
      <path d="M 48.831 86.169 c -13.336 0 -25.904 -6.506 -33.62 -17.403 c -2.333 -3.295 -4.163 -6.901 -5.437 -10.717 l 5.606 -1.872 c 1.09 3.265 2.657 6.352 4.654 9.174 c 6.61 9.336 17.376 14.908 28.797 14.908 c 19.443 0 35.26 -15.817 35.26 -35.26 c 0 -19.442 -15.817 -35.259 -35.26 -35.259 C 29.389 9.74 13.571 25.558 13.571 45 h -5.91 c 0 -22.701 18.468 -41.169 41.169 -41.169 C 71.532 3.831 90 22.299 90 45 C 90 67.701 71.532 86.169 48.831 86.169 z" transform=" matrix(1 0 0 1 0 0) " stroke-linecap="round"></path>
      <polygon points="64.67,61.69 45.88,46.41 45.88,19.03 51.78,19.03 51.78,43.59 68.4,57.1 " transform="  matrix(1 0 0 1 0 0) "></polygon>
      <polygon points="21.23,40.41 10.62,51.02 0,40.41 " transform="  matrix(1 0 0 1 0 0) "></polygon>
    </g>
  </symbol>
  <symbol version="1.0" xmlns="http://www.w3.org/2000/svg" preserveAspectRatio="xMidYMid meet" viewBox="0 0 512.000000 512.000000" id="home">
    <g transform="translate(0.000000,512.000000) scale(0.100000,-0.100000)" fill="#000000" stroke="none">
      <path d="M2434 4786 c-68 -16 -170 -63 -223 -103 -62 -48 -1746 -1675 -1782
-1723 -191 -253 -122 -613 153 -790 81 -53 172 -81 285 -87 l93 -6 0 -666 c0
-724 0 -722 56 -833 59 -117 196 -220 327 -248 35 -7 181 -10 425 -8 356 3
372 4 398 24 15 11 37 33 48 48 21 27 21 39 24 697 l2 669 320 0 320 0 2 -669
c3 -658 3 -670 24 -697 11 -15 33 -37 48 -48 26 -20 42 -21 398 -24 244 -2
390 1 425 8 131 28 268 131 327 248 56 111 56 109 56 834 l0 668 68 0 c84 0
206 30 275 67 66 36 166 130 208 194 127 198 111 468 -37 638 -88 101 -1750
1695 -1803 1729 -122 78 -298 109 -437 78z m243 -334 c51 -26 1762 -1676 1781
-1717 37 -81 23 -176 -34 -243 -66 -77 -93 -86 -301 -92 -198 -5 -209 -9 -257
-74 -21 -27 -21 -39 -26 -806 -5 -767 -5 -779 -26 -806 -11 -15 -33 -37 -48
-48 -26 -20 -43 -21 -297 -24 l-269 -3 -2 670 c-3 658 -3 670 -24 697 -11 15
-33 37 -48 48 -27 21 -38 21 -566 21 -528 0 -539 0 -566 -21 -15 -11 -37 -33
-48 -48 -21 -27 -21 -39 -24 -697 l-2 -670 -269 3 c-254 3 -271 4 -297 24 -15
11 -37 33 -48 48 -21 27 -21 39 -26 806 -5 767 -5 779 -26 806 -48 65 -59 69
-257 74 -161 5 -187 8 -223 27 -112 59 -162 184 -118 294 13 32 193 210 877
871 473 456 871 837 884 845 72 47 183 54 260 15z"></path>
    </g>
  </symbol>
  <symbol xmlns="http://www.w3.org/2000/svg" xmlns:xlink="http://www.w3.org/1999/xlink" version="1.1" xml:space="preserve" viewBox="0 0 256 256" id="library">
    <defs></defs>
    <g transform="translate(1.4065934065934016 1.4065934065934016) scale(2.81 2.81)">
      <path d="M 30.288 64.638 c -0.526 0 -1.052 -0.136 -1.521 -0.406 c -0.939 -0.542 -1.522 -1.552 -1.522 -2.636 V 45.224 c 0 -1.084 0.583 -2.094 1.522 -2.636 c 0.938 -0.542 2.104 -0.542 3.042 0 l 14.177 8.186 c 0.938 0.542 1.521 1.552 1.521 2.635 c 0 1.084 -0.583 2.094 -1.521 2.635 l -14.178 8.188 C 31.34 64.502 30.814 64.638 30.288 64.638 z M 29.809 60.767 C 29.809 60.768 29.809 60.768 29.809 60.767 C 29.809 60.768 29.809 60.768 29.809 60.767 z M 31.245 46.882 v 13.056 L 42.55 53.41 L 31.245 46.882 z" transform=" matrix(1 0 0 1 0 0) " stroke-linecap="round"></path>
      <path d="M 66.18 79.463 H 7.001 C 3.141 79.463 0 76.322 0 72.462 V 34.358 c 0 -3.86 3.141 -7.001 7.001 -7.001 H 66.18 c 3.86 0 7.001 3.141 7.001 7.001 v 38.104 C 73.181 76.322 70.04 79.463 66.18 79.463 z M 7.001 31.357 C 5.346 31.357 4 32.703 4 34.358 v 38.104 c 0 1.654 1.346 3.001 3.001 3.001 H 66.18 c 1.654 0 3.001 -1.347 3.001 -3.001 V 34.358 c 0 -1.655 -1.347 -3.001 -3.001 -3.001 H 7.001 z" transform=" matrix(1 0 0 1 0 0) " stroke-linecap="round"></path>
      <path d="M 79.59 71.171 c -1.104 0 -2 -0.896 -2 -2 V 25.948 c 0 -1.655 -1.347 -3.001 -3.001 -3.001 H 10.292 c -1.104 0 -2 -0.896 -2 -2 s 0.896 -2 2 -2 h 64.297 c 3.86 0 7.001 3.141 7.001 7.001 v 43.223 C 81.59 70.275 80.694 71.171 79.59 71.171 z" transform=" matrix(1 0 0 1 0 0) " stroke-linecap="round"></path>
      <path d="M 88 62.761 c -1.104 0 -2 -0.896 -2 -2 V 17.538 c 0 -1.654 -1.347 -3 -3.001 -3 H 18.702 c -1.104 0 -2 -0.896 -2 -2 s 0.896 -2 2 -2 h 64.297 c 3.86 0 7.001 3.141 7.001 7 v 43.223 C 90 61.865 89.104 62.761 88 62.761 z" transform=" matrix(1 0 0 1 0 0) " stroke-linecap="round"></path>
    </g>
  </symbol>
  <symbol version="1.0" xmlns="http://www.w3.org/2000/svg" preserveAspectRatio="xMidYMid meet" viewBox="0 0 512.000000 512.000000" id="like">
    <g transform="translate(0.000000,512.000000) scale(0.100000,-0.100000)" fill="#000000" stroke="none">
      <path d="M2640 4794 c-14 -3 -52 -14 -85 -25 -127 -42 -129 -44 -688 -750
-284 -360 -545 -691 -580 -736 l-62 -81 -395 -4 c-391 -3 -395 -3 -432 -26
-21 -13 -45 -40 -57 -66 -21 -43 -21 -43 -19 -1364 3 -1316 3 -1321 24 -1348
11 -15 33 -37 48 -48 27 -21 28 -21 1769 -24 1139 -1 1761 1 1797 8 161 29
315 166 363 321 9 30 39 234 67 454 74 595 78 612 265 1110 67 182 128 348
134 370 6 22 11 78 11 125 -1 231 -164 432 -388 479 -35 7 -248 11 -632 11
l-580 0 0 588 c0 637 -1 645 -56 753 -73 145 -233 245 -403 254 -42 2 -87 1
-101 -1z m150 -336 c26 -14 53 -37 65 -58 19 -34 20 -55 25 -727 5 -679 5
-692 26 -719 11 -15 33 -37 48 -48 27 -21 40 -21 719 -26 498 -4 698 -8 712
-17 50 -28 95 -104 95 -158 0 -15 -58 -183 -129 -373 -201 -539 -205 -555
-281 -1164 -28 -222 -55 -415 -61 -429 -13 -34 -56 -75 -92 -88 -19 -8 -412
-11 -1253 -11 l-1224 0 0 1150 c0 968 2 1156 14 1183 8 18 271 356 586 752
599 756 598 754 675 755 17 0 51 -10 75 -22z m-1670 -2698 l0 -1120 -240 0
-240 0 0 1120 0 1120 240 0 240 0 0 -1120z"></path>
    </g>
  </symbol>
  <symbol xmlns="http://www.w3.org/2000/svg" xmlns:xlink="http://www.w3.org/1999/xlink" version="1.1" xml:space="preserve" viewBox="0 0 256 256" id="microphone">
    <defs></defs>
    <g transform="translate(1.4065934065934016 1.4065934065934016) scale(2.81 2.81)">
      <path d="M 45 0 c -8.481 0 -15.382 6.9 -15.382 15.382 v 29.044 c 0 8.482 6.9 15.382 15.382 15.382 s 15.382 -6.9 15.382 -15.382 V 15.382 C 60.382 6.9 53.481 0 45 0 z" transform=" matrix(1 0 0 1 0 0) " stroke-linecap="round"></path>
      <path d="M 69.245 38.312 c -1.104 0 -2 0.896 -2 2 v 6.505 c 0 12.266 -9.979 22.244 -22.245 22.244 s -22.245 -9.979 -22.245 -22.244 v -6.505 c 0 -1.104 -0.896 -2 -2 -2 s -2 0.896 -2 2 v 6.505 c 0 13.797 10.705 25.134 24.245 26.16 V 86 h -9.126 c -1.104 0 -2 0.896 -2 2 s 0.896 2 2 2 h 22.252 c 1.104 0 2 -0.896 2 -2 s -0.896 -2 -2 -2 H 47 V 72.978 c 13.54 -1.026 24.245 -12.363 24.245 -26.16 v -6.505 C 71.245 39.208 70.35 38.312 69.245 38.312 z" transform=" matrix(1 0 0 1 0 0) " stroke-linecap="round"></path>
    </g>
  </symbol>
  <symbol version="1.1" id="Music" xmlnsX="http://ns.adobe.com/Extensibility/1.0/" xmlnsI="http://ns.adobe.com/AdobeIllustrator/10.0/" xmlnsGraph="http://ns.adobe.com/Graphs/1.0/" xmlns="http://www.w3.org/2000/svg" xmlns:xlink="http://www.w3.org/1999/xlink" x="0px" y="0px" enable-background="new 0 0 176 176" xml:space="preserve" viewBox="0 0 176 176">
    <metadata>
      <sfw xmlns="http://ns.adobe.com/SaveForWeb/1.0/">
        <slices></slices>
        <sliceSourceBounds bottomLeftOrigin="true" height="176" width="176" x="8" y="-184"></sliceSourceBounds>
      </sfw>
    </metadata>
    <g id="XMLID_167_">
      <circle id="XMLID_791_" fill="#FF0000" cx="88" cy="88" r="88"></circle>
      <path id="XMLID_42_" fill="#FFFFFF" d="M88,46c23.1,0,42,18.8,42,42s-18.8,42-42,42s-42-18.8-42-42S64.9,46,88,46 M88,42
		c-25.4,0-46,20.6-46,46s20.6,46,46,46s46-20.6,46-46S113.4,42,88,42L88,42z"></path>
      <polygon id="XMLID_274_" fill="#FFFFFF" points="72,111 111,87 72,65 	"></polygon>
    </g>
  </symbol>
  <symbol xmlns="http://www.w3.org/2000/svg" xmlns:xlink="http://www.w3.org/1999/xlink" version="1.1" xml:space="preserve" viewBox="0 0 256 256" id="notification-bell">
    <defs></defs>
    <g transform="translate(1.4065934065934016 1.4065934065934016) scale(2.81 2.81)">
      <path d="M 77.435 77.343 H 12.565 c -3.467 0 -6.288 -2.82 -6.288 -6.287 c 0 -3.905 1.703 -7.601 4.673 -10.138 c 1.634 -1.395 2.57 -3.427 2.57 -5.574 V 31.479 C 13.521 14.122 27.643 0 45 0 s 31.479 14.122 31.479 31.479 v 23.865 c 0 2.147 0.937 4.179 2.57 5.574 c 2.97 2.537 4.673 6.231 4.673 10.138 C 83.722 74.522 80.901 77.343 77.435 77.343 z M 45 6 C 30.951 6 19.521 17.43 19.521 31.479 v 23.865 c 0 3.905 -1.703 7.601 -4.673 10.137 c -1.633 1.396 -2.57 3.427 -2.57 5.575 c 0 0.158 0.129 0.287 0.288 0.287 h 64.869 c 0.158 0 0.287 -0.129 0.287 -0.287 c 0 -2.148 -0.937 -4.181 -2.569 -5.575 c -2.971 -2.537 -4.674 -6.232 -4.674 -10.137 V 31.479 C 70.479 17.43 59.049 6 45 6 z" transform=" matrix(1 0 0 1 0 0) " stroke-linecap="round"></path>
      <path d="M 45 90 c -8.589 0 -15.576 -6.987 -15.576 -15.576 c 0 -0.055 0.002 -0.133 0.006 -0.199 c 0.062 -1.602 1.38 -2.882 2.998 -2.882 c 1.657 0 3 1.343 3 3 c 0 0.041 -0.001 0.095 -0.004 0.146 C 35.459 79.74 39.742 84 45 84 c 5.259 0 9.541 -4.261 9.576 -9.512 c -0.002 -0.052 -0.004 -0.105 -0.004 -0.146 c 0 -1.657 1.343 -3 3 -3 c 1.618 0 2.938 1.282 2.998 2.886 c 0.003 0.065 0.006 0.143 0.006 0.195 C 60.576 83.013 53.589 90 45 90 z" transform=" matrix(1 0 0 1 0 0) " stroke-linecap="round"></path>
    </g>
  </symbol>
  <symbol version="1.0" xmlns="http://www.w3.org/2000/svg" preserveAspectRatio="xMidYMid meet" viewBox="0 0 512.000000 512.000000" id="playlist">
    <g transform="translate(0.000000,512.000000) scale(0.100000,-0.100000)" fill="#000000" stroke="none">
      <path d="M94 4831 c-61 -28 -89 -73 -89 -143 0 -63 19 -97 75 -135 l33 -23
2447 0 2447 0 33 23 c50 33 72 70 77 124 5 65 -26 120 -87 151 l-44 22 -2426
0 c-2343 0 -2426 -1 -2466 -19z"></path>
      <path d="M80 3468 c-50 -34 -72 -71 -77 -125 -5 -65 26 -120 87 -150 l44 -23
2426 0 2426 0 44 23 c61 30 92 85 87 150 -5 54 -27 91 -77 125 l-33 22 -2447
0 -2447 0 -33 -22z"></path>
      <path d="M3464 2319 c-47 -13 -101 -79 -109 -131 -3 -24 -5 -439 -3 -923 l3
-880 22 -35 c30 -49 77 -74 138 -74 48 0 78 17 790 443 407 244 754 458 772
476 56 59 56 149 0 208 -30 32 -1440 883 -1513 913 -37 16 -55 16 -100 3z
m697 -726 c263 -159 479 -290 479 -293 0 -6 -955 -580 -964 -580 -3 0 -6 261
-6 580 0 319 3 580 6 580 3 0 221 -129 485 -287z"></path>
      <path d="M107 2126 c-49 -18 -64 -32 -89 -80 -37 -73 -13 -153 62 -203 l33
-23 1291 0 c1262 0 1292 1 1323 20 60 36 90 108 72 172 -13 52 -63 105 -107
118 -24 6 -469 10 -1292 10 -1024 -1 -1262 -3 -1293 -14z"></path>
      <path d="M80 758 c-56 -39 -75 -73 -75 -136 0 -70 28 -115 89 -143 39 -18 94
-19 1309 -19 1383 0 1303 -3 1360 58 71 75 47 201 -47 246 -31 14 -153 16
-1319 16 l-1284 0 -33 -22z"></path>
    </g>
  </symbol>
  <symbol xmlns="http://www.w3.org/2000/svg" xmlns:xlink="http://www.w3.org/1999/xlink" version="1.1" xml:space="preserve" viewBox="0 0 256 256" id="report">
    <defs></defs>
    <g transform="translate(1.4065934065934016 1.4065934065934016) scale(2.81 2.81)">
      <path d="M 63.167 54.933 c -5.391 0 -10.782 -1.03 -16.136 -3.091 c -9.751 -3.754 -19.642 -3.754 -29.396 0 c -0.614 0.238 -1.306 0.156 -1.85 -0.218 c -0.543 -0.373 -0.868 -0.989 -0.868 -1.648 V 9.025 c 0 -0.827 0.509 -1.569 1.282 -1.867 c 10.707 -4.121 21.563 -4.121 32.27 0 c 9.753 3.754 19.644 3.754 29.396 0 c 0.614 -0.237 1.308 -0.155 1.851 0.218 c 0.544 0.373 0.868 0.99 0.868 1.649 v 40.95 c 0 0.827 -0.51 1.569 -1.281 1.866 C 73.949 53.902 68.558 54.933 63.167 54.933 z M 32.333 45.018 c 5.392 0 10.781 1.03 16.135 3.091 c 9.327 3.588 18.776 3.747 28.115 0.471 V 11.849 c -9.822 3.135 -19.75 2.816 -29.553 -0.957 c -9.325 -3.59 -18.777 -3.748 -28.114 -0.472 v 36.732 C 23.374 45.73 27.855 45.018 32.333 45.018 z" transform=" matrix(1 0 0 1 0 0) " stroke-linecap="round"></path>
      <path d="M 16.917 90 c -1.104 0 -2 -0.896 -2 -2 V 2 c 0 -1.104 0.896 -2 2 -2 s 2 0.896 2 2 v 86 C 18.917 89.104 18.021 90 16.917 90 z" transform=" matrix(1 0 0 1 0 0) " stroke-linecap="round"></path>
      <path d="M 22.021 90 H 11.814 c -1.104 0 -2 -0.896 -2 -2 s 0.896 -2 2 -2 h 10.207 c 1.104 0 2 0.896 2 2 S 23.125 90 22.021 90 z" transform=" matrix(1 0 0 1 0 0) " stroke-linecap="round"></path>
    </g>
  </symbol>
  <symbol xmlns="http://www.w3.org/2000/svg" xmlns:xlink="http://www.w3.org/1999/xlink" version="1.1" xml:space="preserve" viewBox="0 0 256 256" id="search">
    <defs></defs>
    <g transform="translate(1.4065934065934016 1.4065934065934016) scale(2.81 2.81)">
      <path d="M 89.414 86.586 L 62.862 60.034 c 5.931 -6.612 9.178 -15.063 9.178 -24.014 c 0 -9.622 -3.747 -18.667 -10.551 -25.47 C 54.687 3.747 45.641 0 36.02 0 c -9.622 0 -18.667 3.747 -25.47 10.55 C 3.747 17.353 0 26.398 0 36.02 c 0 9.621 3.747 18.667 10.55 25.469 c 6.803 6.804 15.848 10.551 25.47 10.551 c 8.951 0 17.402 -3.247 24.014 -9.178 l 26.552 26.552 C 86.977 89.805 87.488 90 88 90 s 1.023 -0.195 1.414 -0.586 C 90.195 88.633 90.195 87.367 89.414 86.586 z M 13.378 58.661 C 7.331 52.613 4 44.573 4 36.02 c 0 -8.553 3.331 -16.594 9.378 -22.642 S 27.467 4 36.02 4 c 8.553 0 16.593 3.331 22.641 9.378 S 68.04 27.467 68.04 36.02 c 0 8.553 -3.331 16.593 -9.379 22.641 S 44.573 68.04 36.02 68.04 C 27.467 68.04 19.426 64.709 13.378 58.661 z" transform=" matrix(1 0 0 1 0 0) " stroke-linecap="round"></path>
    </g>
  </symbol>
  <symbol xmlns="http://www.w3.org/2000/svg" xmlns:xlink="http://www.w3.org/1999/xlink" version="1.1" xml:space="preserve" viewBox="0 0 256 256" id="search-bold">
    <defs></defs>
    <g transform="translate(1.4065934065934016 1.4065934065934016) scale(2.81 2.81)">
      <path d="M 88.535 81.465 L 65.846 58.776 c 10.891 -14.351 9.801 -34.954 -3.288 -48.043 C 55.638 3.812 46.435 0 36.646 0 c -9.789 0 -18.992 3.812 -25.913 10.733 S 0 26.857 0 36.646 c 0 9.788 3.812 18.991 10.733 25.912 c 7.144 7.145 16.528 10.717 25.913 10.717 c 7.808 0 15.612 -2.482 22.13 -7.429 l 22.689 22.689 C 82.44 89.512 83.721 90 85 90 s 2.56 -0.488 3.535 -1.465 C 90.488 86.583 90.488 83.417 88.535 81.465 z M 17.805 55.488 C 12.771 50.455 10 43.764 10 36.646 c 0 -7.118 2.771 -13.809 7.805 -18.842 C 22.837 12.771 29.529 10 36.646 10 c 7.117 0 13.809 2.771 18.842 7.805 c 10.389 10.389 10.389 27.294 0 37.684 C 45.098 65.878 28.193 65.876 17.805 55.488 z" transform=" matrix(1 0 0 1 0 0) " stroke-linecap="round"></path>
    </g>
  </symbol>
  <symbol xmlns="http://www.w3.org/2000/svg" xmlns:xlink="http://www.w3.org/1999/xlink" version="1.1" xml:space="preserve" viewBox="0 0 256 256" id="settings">
    <defs></defs>
    <g transform="translate(1.4065934065934016 1.4065934065934016) scale(2.81 2.81)">
      <path d="M 34.268 90 c -0.669 0 -1.338 -0.132 -1.975 -0.395 l -9.845 -4.079 c -1.274 -0.527 -2.267 -1.519 -2.795 -2.795 c -0.528 -1.274 -0.528 -2.679 0 -3.953 c 1.216 -2.936 0.075 -5.558 -1.399 -7.032 c -1.474 -1.475 -4.094 -2.615 -7.033 -1.399 c -1.273 0.529 -2.677 0.528 -3.952 0.001 c -1.275 -0.528 -2.268 -1.52 -2.795 -2.795 l -4.078 -9.844 c -1.089 -2.63 0.164 -5.657 2.794 -6.748 C 6.128 49.745 7.174 47.085 7.174 45 c 0 -2.084 -1.046 -4.745 -3.983 -5.962 c -1.274 -0.528 -2.267 -1.52 -2.795 -2.795 c -0.528 -1.274 -0.528 -2.678 0 -3.952 l 4.078 -9.844 c 1.09 -2.631 4.12 -3.883 6.747 -2.795 c 2.936 1.216 5.558 0.075 7.033 -1.399 c 1.474 -1.474 2.616 -4.095 1.399 -7.032 c -1.09 -2.631 0.164 -5.657 2.795 -6.747 l 9.844 -4.077 c 1.274 -0.528 2.678 -0.528 3.953 0 c 1.275 0.528 2.268 1.521 2.795 2.796 c 1.216 2.936 3.877 3.982 5.962 3.982 c 2.085 0 4.745 -1.046 5.962 -3.983 c 1.09 -2.631 4.115 -3.885 6.748 -2.795 l 9.845 4.077 c 1.274 0.528 2.267 1.52 2.795 2.795 c 0.527 1.274 0.527 2.679 -0.001 3.953 c -1.217 2.936 -0.074 5.557 1.399 7.031 c 1.475 1.474 4.097 2.615 7.032 1.399 c 1.277 -0.528 2.68 -0.527 3.953 0 c 1.275 0.528 2.268 1.521 2.796 2.796 l 4.077 9.843 c 1.089 2.631 -0.165 5.658 -2.795 6.747 c -2.937 1.217 -3.983 3.878 -3.983 5.962 c 0 2.085 1.046 4.745 3.983 5.962 h 0.001 c 2.629 1.091 3.883 4.117 2.795 6.747 l -4.079 9.845 c -0.527 1.273 -1.52 2.266 -2.795 2.795 c -1.273 0.528 -2.679 0.528 -3.954 -0.001 c -2.934 -1.217 -5.557 -0.074 -7.031 1.399 c -1.474 1.475 -2.615 4.096 -1.399 7.032 c 0.528 1.274 0.528 2.678 0.001 3.953 c -0.528 1.275 -1.521 2.267 -2.796 2.796 l -9.844 4.077 c -2.63 1.09 -5.657 -0.166 -6.748 -2.794 c -1.217 -2.938 -3.877 -3.985 -5.962 -3.985 c -2.084 0 -4.746 1.047 -5.962 3.984 c -0.527 1.273 -1.52 2.266 -2.794 2.795 C 35.607 89.868 34.937 90 34.268 90 z M 25.491 80.293 l 8.349 3.459 c 2.105 -4.294 6.31 -6.926 11.161 -6.926 c 0 0 0 0 0 0 c 4.852 0 9.056 2.633 11.16 6.926 l 8.348 -3.459 c -1.547 -4.524 -0.435 -9.358 2.996 -12.788 c 3.431 -3.431 8.265 -4.544 12.789 -2.996 l 3.459 -8.348 c -4.294 -2.104 -6.926 -6.309 -6.926 -11.16 c 0 -4.852 2.632 -9.057 6.926 -11.162 l -3.459 -8.349 c -4.523 1.549 -9.359 0.435 -12.789 -2.994 c -3.432 -3.431 -4.543 -8.265 -2.996 -12.789 l -8.348 -3.458 c -2.103 4.293 -6.308 6.925 -11.16 6.925 c -4.852 0 -9.057 -2.632 -11.162 -6.925 l -8.349 3.458 c 1.548 4.524 0.436 9.358 -2.995 12.789 c -3.431 3.431 -8.264 4.544 -12.789 2.994 l -3.458 8.349 c 4.294 2.105 6.926 6.31 6.926 11.162 c 0 4.852 -2.632 9.056 -6.926 11.16 l 3.458 8.348 c 4.525 -1.547 9.359 -0.435 12.789 2.995 C 25.927 70.935 27.039 75.769 25.491 80.293 z M 84.511 56.503 c 0.001 0 0.002 0 0.003 0.001 C 84.513 56.503 84.512 56.503 84.511 56.503 z M 45.001 65.781 C 33.543 65.781 24.22 56.459 24.22 45 c 0 -11.459 9.323 -20.781 20.781 -20.781 S 65.783 33.541 65.783 45 C 65.783 56.459 56.46 65.781 45.001 65.781 z M 45.001 30.218 C 36.851 30.218 30.22 36.85 30.22 45 c 0 8.151 6.631 14.782 14.781 14.782 c 8.151 0 14.782 -6.631 14.782 -14.782 C 59.783 36.85 53.153 30.218 45.001 30.218 z" transform=" matrix(1 0 0 1 0 0) " stroke-linecap="round"></path>
    </g>
  </symbol>
  <symbol xmlns="http://www.w3.org/2000/svg" xmlns:xlink="http://www.w3.org/1999/xlink" version="1.1" xml:space="preserve" viewBox="0 0 256 256" id="shorts">
    <defs></defs>
    <g transform="translate(1.4065934065934016 1.4065934065934016) scale(2.81 2.81)">
      <path d="M 30.063 90 c -6.765 0 -13.323 -3.634 -16.759 -10.009 c -4.669 -8.691 -1.799 -19.627 6.535 -24.901 c 0.049 -0.03 0.099 -0.06 0.15 -0.086 c 0.673 -0.349 1.33 -0.708 1.989 -1.081 c -0.487 -0.279 -0.972 -0.555 -1.464 -0.83 c -5.12 -2.956 -8.263 -7.114 -9.115 -12.038 c -1.115 -6.588 -1.112 -14.914 8.886 -20.927 c 7.687 -4.595 15.564 -9.093 23.183 -13.444 c 2.527 -1.443 5.056 -2.887 7.585 -4.338 c 5.279 -3.008 11.797 -3.129 17.436 -0.329 c 5.692 2.826 9.569 8.152 10.373 14.247 c 1.166 7.769 -2.72 15.545 -9.677 19.315 c -0.449 0.254 -0.885 0.504 -1.313 0.751 c 0.409 0.244 0.816 0.483 1.227 0.715 c 5.715 3.216 9.323 8.684 9.899 14.999 c 0.568 6.244 -1.953 12.194 -6.916 16.325 c -1.584 1.287 -3.325 2.268 -5.008 3.216 c -0.487 0.274 -0.975 0.549 -1.455 0.83 c -7.804 4.547 -17.067 9.922 -26.608 15.32 C 36.162 89.271 33.091 90 30.063 90 z M 21.907 58.516 c -6.513 4.174 -8.746 12.756 -5.08 19.579 c 3.927 7.284 13.009 10.041 20.251 6.138 c 9.485 -5.367 18.734 -10.735 26.526 -15.275 c 0.497 -0.29 1.002 -0.574 1.507 -0.86 c 1.609 -0.906 3.129 -1.762 4.432 -2.821 c 3.918 -3.26 5.918 -7.958 5.472 -12.872 c -0.454 -4.984 -3.326 -9.314 -7.88 -11.877 c -0.734 -0.415 -1.449 -0.845 -2.191 -1.292 c -0.628 -0.378 -1.277 -0.769 -1.975 -1.172 c -0.61 -0.352 -0.99 -0.999 -1.001 -1.704 c -0.01 -0.705 0.352 -1.363 0.951 -1.732 c 1.398 -0.861 2.773 -1.671 4.329 -2.551 c 5.513 -2.987 8.576 -9.111 7.654 -15.256 c -0.635 -4.808 -3.695 -8.99 -8.192 -11.223 c -4.445 -2.207 -9.558 -2.125 -13.671 0.219 c -2.526 1.45 -5.057 2.895 -7.587 4.339 c -7.601 4.341 -15.462 8.83 -23.11 13.401 c -6.346 3.817 -8.376 8.691 -7 16.821 c 0.65 3.762 3.056 6.871 7.149 9.234 c 1.452 0.814 2.868 1.639 4.46 2.583 c 0.606 0.359 0.979 1.011 0.981 1.715 c 0.002 0.705 -0.367 1.359 -0.971 1.721 C 25.216 56.681 23.628 57.622 21.907 58.516 z" transform=" matrix(1 0 0 1 0 0) " stroke-linecap="round"></path>
      <path d="M 36.741 59.95 c -0.345 0 -0.69 -0.089 -0.999 -0.268 c -0.62 -0.357 -1.002 -1.018 -1.002 -1.733 V 32.417 c 0 -0.715 0.381 -1.375 1 -1.732 c 0.619 -0.357 1.382 -0.357 2 0 l 22.085 12.737 c 0.619 0.357 1 1.016 1.001 1.731 c 0.001 0.715 -0.38 1.374 -0.997 1.733 L 37.744 59.681 C 37.433 59.861 37.087 59.95 36.741 59.95 z M 38.741 35.88 V 54.48 l 16.088 -9.321 L 38.741 35.88 z" transform=" matrix(1 0 0 1 0 0) " stroke-linecap="round"></path>
    </g>
  </symbol>
  <symbol version="1.1" id="subcribe" xmlns="http://www.w3.org/2000/svg" xmlns:xlink="http://www.w3.org/1999/xlink" x="0px" y="0px" xml:space="preserve" viewBox="0 0 512 512">
    <g>
      <path d="M464,448H48c-8.8,0-16-7.2-16-16V208c0-8.8,7.2-16,16-16h416c8.8,0,16,7.2,16,16v224
		C480,440.8,472.8,448,464,448z M48,480c-26.5,0-48-21.5-48-48V208c0-26.5,21.5-48,48-48h416c26.5,0,48,21.5,48,48v224
		c0,26.5-21.5,48-48,48H48z M64,112c0,8.8,7.2,16,16,16h352c8.8,0,16-7.2,16-16s-7.2-16-16-16H80C71.2,96,64,103.2,64,112z M128,48
		c0,8.8,7.2,16,16,16h224c8.8,0,16-7.2,16-16s-7.2-16-16-16H144C135.2,32,128,39.2,128,48z"></path>
      <path d="M200.3,226c5.1-2.8,11.3-2.7,16.2,0.4l128,80c7.5,4.7,9.8,14.5,5.1,22l-5.1,5.1l-128,80
		c-7.5,4.7-17.4,2.4-22-5.1L192,400V240C192,234.2,195.2,228.8,200.3,226z"></path>
    </g>
  </symbol>
  <symbol version="1.0" xmlns="http://www.w3.org/2000/svg" preserveAspectRatio="xMidYMid meet" viewBox="0 0 512.000000 512.000000" id="video">
    <g transform="translate(0.000000,512.000000) scale(0.100000,-0.100000)" fill="#000000" stroke="none">
      <path d="M681 4784 c-169 -45 -301 -180 -346 -351 -23 -86 -23 -3660 0 -3746
45 -173 178 -307 350 -352 52 -13 277 -15 1875 -15 1980 0 1865 -3 1982 56 71
36 159 123 197 193 65 123 61 -8 61 1991 0 1598 -2 1823 -15 1875 -45 172
-179 305 -352 350 -85 22 -3669 21 -3752 -1z m3725 -330 c15 -11 37 -33 48
-48 l21 -27 0 -1819 0 -1819 -21 -27 c-11 -15 -33 -37 -48 -48 l-27 -21 -1819
0 -1819 0 -27 21 c-15 11 -37 33 -48 48 l-21 27 -3 1792 c-1 986 0 1806 3
1824 7 40 49 91 90 109 25 11 350 13 1837 11 l1807 -2 27 -21z"></path>
      <path d="M1855 3344 c-46 -24 -74 -54 -86 -93 -6 -24 -9 -267 -7 -713 3 -665
3 -677 24 -704 33 -45 70 -67 121 -71 47 -5 67 4 703 322 360 180 668 336 684
348 41 29 70 99 62 151 -14 86 -4 80 -727 441 -708 355 -707 354 -774 319z
m975 -784 c0 -3 -169 -89 -375 -193 l-375 -187 0 380 0 380 375 -187 c206
-104 375 -190 375 -193z"></path>
    </g>
  </symbol>
  <symbol xmlns="http://www.w3.org/2000/svg" xmlns:xlink="http://www.w3.org/1999/xlink" version="1.1" xml:space="preserve" viewBox="0 0 256 256" id="video-camera">
    <defs></defs>
    <g transform="translate(1.4065934065934016 1.4065934065934016) scale(2.81 2.81)">
      <path d="M 57.757 71.947 H 9.263 C 4.155 71.947 0 67.792 0 62.684 V 27.316 c 0 -5.108 4.155 -9.263 9.263 -9.263 h 48.494 c 5.108 0 9.264 4.155 9.264 9.263 v 35.367 C 67.021 67.792 62.865 71.947 57.757 71.947 z M 9.263 24.053 C 7.464 24.053 6 25.517 6 27.316 v 35.367 c 0 1.8 1.464 3.264 3.263 3.264 h 48.494 c 1.8 0 3.264 -1.464 3.264 -3.264 V 27.316 c 0 -1.799 -1.464 -3.263 -3.264 -3.263 H 9.263 z" transform=" matrix(1 0 0 1 0 0) " stroke-linecap="round"></path>
      <path d="M 83.973 66.275 c -0.824 0 -1.652 -0.17 -2.434 -0.514 l -18.728 -8.244 c -1.517 -0.668 -2.204 -2.438 -1.537 -3.955 c 0.669 -1.516 2.438 -2.204 3.955 -1.537 l 18.728 8.244 L 84 29.758 l -18.771 8.216 c -1.519 0.669 -3.287 -0.021 -3.955 -1.537 c -0.667 -1.516 0.021 -3.287 1.537 -3.954 l 18.728 -8.244 c 1.873 -0.825 4.013 -0.648 5.726 0.468 C 88.978 25.825 90 27.713 90 29.758 v 30.484 c 0 2.045 -1.022 3.934 -2.735 5.051 C 86.267 65.944 85.123 66.275 83.973 66.275 z" transform=" matrix(1 0 0 1 0 0) " stroke-linecap="round"></path>
      <path d="M 28.553 56.516 l 15.969 -9.798 c 1.282 -0.787 1.282 -2.649 0 -3.436 l -15.969 -9.798 c -1.343 -0.824 -3.07 0.142 -3.07 1.718 v 19.597 C 25.483 56.374 27.21 57.34 28.553 56.516 z" transform=" matrix(1 0 0 1 0 0) " stroke-linecap="round"></path>
    </g>
  </symbol>
  <symbol xmlns="http://www.w3.org/2000/svg" id="watch-later" viewBox="0 0 24 24">
    <path d="M12,24C5.383,24,0,18.617,0,12S5.383,0,12,0s12,5.383,12,12-5.383,12-12,12Zm0-22C6.486,2,2,6.486,2,12s4.486,10,10,10,10-4.486,10-10S17.514,2,12,2Zm2.5,14.33c.479-.276,.643-.888,.366-1.366l-1.866-3.232V6c0-.552-.447-1-1-1s-1,.448-1,1v6c0,.176,.046,.348,.134,.5l2,3.464c.186,.321,.521,.5,.867,.5,.17,0,.342-.043,.499-.134Z"></path>
  </symbol>
  <symbol xmlns="http://www.w3.org/2000/svg" xmlns:xlink="http://www.w3.org/1999/xlink" version="1.1" xml:space="preserve" viewBox="0 0 256 256" id="x">
    <defs></defs>
    <g transform="translate(1.4065934065934016 1.4065934065934016) scale(2.81 2.81)">
      <path d="M 3 90 c -0.768 0 -1.536 -0.293 -2.121 -0.879 c -1.172 -1.171 -1.172 -3.071 0 -4.242 l 84 -84 c 1.172 -1.172 3.07 -1.172 4.242 0 c 1.172 1.171 1.172 3.071 0 4.242 l -84 84 C 4.536 89.707 3.768 90 3 90 z" transform=" matrix(1 0 0 1 0 0) " stroke-linecap="round"></path>
      <path d="M 87 90 c -0.768 0 -1.535 -0.293 -2.121 -0.879 l -84 -84 c -1.172 -1.171 -1.172 -3.071 0 -4.242 c 1.171 -1.172 3.071 -1.172 4.242 0 l 84 84 c 1.172 1.171 1.172 3.071 0 4.242 C 88.535 89.707 87.768 90 87 90 z" transform=" matrix(1 0 0 1 0 0) " stroke-linecap="round"></path>
    </g>
  </symbol>
  <symbol version="1.0" xmlns="http://www.w3.org/2000/svg" preserveAspectRatio="xMidYMid meet" viewBox="0 0 512.000000 512.000000" id="youtube">
    <g transform="translate(0.000000,512.000000) scale(0.100000,-0.100000)" fill="#000000" stroke="none">
      <path d="M904 4355 c-351 -54 -642 -270 -795 -590 -56 -117 -85 -215 -99 -340
-13 -120 -13 -1610 0 -1730 14 -125 43 -223 99 -340 155 -324 443 -536 801
-590 142 -22 3158 -22 3300 0 358 54 646 266 801 590 56 117 85 215 99 340 13
120 13 1610 0 1730 -14 125 -43 223 -99 340 -155 324 -443 536 -801 590 -131
20 -3178 20 -3306 0z m1728 -1406 c381 -193 703 -361 716 -372 26 -25 29 -58
5 -79 -16 -14 -1382 -667 -1427 -682 -11 -4 -29 0 -42 9 l-24 15 0 718 c0 545
3 721 12 730 7 7 24 12 39 12 16 0 314 -145 721 -351z"></path>
    </g>
  </symbol>
  <symbol xmlns="http://www.w3.org/2000/svg" xmlns:xlink="http://www.w3.org/1999/xlink" version="1.1" xml:space="preserve" viewBox="0 0 256 256" id="arrow">
    <defs></defs>
    <g transform="translate(1.4065934065934016 1.4065934065934016) scale(2.81 2.81)">
      <path d="M 24.25 90 c -0.896 0 -1.792 -0.342 -2.475 -1.025 c -1.367 -1.366 -1.367 -3.583 0 -4.949 L 60.8 45 L 21.775 5.975 c -1.367 -1.367 -1.367 -3.583 0 -4.95 c 1.367 -1.366 3.583 -1.366 4.95 0 l 41.5 41.5 c 1.367 1.366 1.367 3.583 0 4.949 l -41.5 41.5 C 26.042 89.658 25.146 90 24.25 90 z" transform=" matrix(1 0 0 1 0 0) " stroke-linecap="round"></path>
    </g>
  </symbol>
  <symbol version="1.0" xmlns="http://www.w3.org/2000/svg" preserveAspectRatio="xMidYMid meet" viewBox="0 0 512.000000 512.000000" id="clip">
    <g transform="translate(0.000000,512.000000) scale(0.100000,-0.100000)" fill="#000000" stroke="none">
      <path d="M701 4319 c-191 -37 -358 -137 -491 -292 -207 -243 -264 -554 -154
-846 67 -178 222 -349 399 -438 213 -108 513 -109 726 -2 l36 18 104 -100 104
-99 -104 -99 -104 -100 -36 18 c-20 10 -74 31 -121 47 -79 26 -97 28 -240 28
-149 0 -159 -1 -250 -32 -272 -94 -464 -295 -542 -568 -30 -104 -32 -314 -4
-414 40 -145 119 -280 233 -397 159 -164 365 -252 590 -253 436 -1 792 334
820 770 8 128 -11 239 -62 371 -4 12 20 38 92 98 93 78 99 81 148 81 l50 0
585 -561 c322 -309 612 -581 645 -606 129 -97 256 -142 420 -150 91 -5 125 -2
193 15 108 28 195 71 277 139 72 59 91 88 81 127 -4 18 -259 236 -879 751
-479 399 -872 730 -872 735 0 5 393 336 872 735 620 515 875 733 879 751 10
39 -9 68 -81 127 -246 203 -602 210 -872 17 -37 -27 -333 -303 -658 -614
l-590 -566 -50 0 c-49 0 -55 3 -148 81 -72 60 -96 86 -92 98 51 132 70 243 62
371 -17 264 -152 496 -372 640 -80 52 -206 102 -300 119 -68 13 -230 13 -294
0z m311 -148 c149 -38 286 -127 373 -242 158 -210 187 -466 78 -711 -15 -35
-23 -66 -20 -80 4 -13 48 -58 102 -102 l95 -78 -68 -63 c-38 -35 -79 -84 -93
-109 -13 -25 -28 -46 -32 -46 -5 0 -51 41 -102 90 -51 50 -100 90 -109 90 -8
0 -51 -18 -95 -40 -417 -210 -895 18 -987 470 -31 157 -1 337 83 479 21 36 77
104 124 152 72 72 101 94 180 133 52 26 123 53 159 60 96 21 223 19 312 -3z
m2739 -7 c66 -23 171 -84 166 -97 -1 -5 -367 -312 -812 -683 l-809 -674 -24
50 c-30 63 -98 139 -163 180 l-51 33 34 32 c309 298 1020 976 1073 1023 75 69
175 122 271 147 82 20 241 15 315 -11z m-1749 -1322 c60 -30 120 -90 150 -150
19 -38 23 -63 23 -132 -1 -100 -21 -152 -87 -218 -57 -58 -116 -84 -202 -90
-227 -14 -386 207 -305 423 27 72 99 146 171 174 72 29 184 25 250 -7z m1121
-1121 c438 -365 797 -667 797 -670 0 -12 -112 -75 -169 -95 -78 -27 -217 -32
-306 -12 -100 24 -204 79 -282 150 -51 46 -765 727 -1071 1021 l-34 32 51 33
c65 41 135 119 163 180 19 41 24 47 38 37 9 -7 375 -311 813 -676z m-1644 613
c14 -25 55 -74 93 -109 l68 -63 -95 -78 c-54 -44 -98 -89 -102 -102 -3 -14 5
-45 20 -80 108 -245 80 -501 -78 -710 -153 -203 -423 -301 -680 -247 -38 8
-112 35 -164 61 -79 39 -108 61 -180 133 -99 101 -151 183 -187 296 -101 318
42 659 340 811 196 101 420 99 627 -6 44 -22 86 -40 95 -40 8 0 58 41 110 90
51 50 97 90 102 90 4 0 18 -21 31 -46z"></path>
      <path d="M755 3978 c-141 -27 -294 -150 -360 -289 -194 -411 225 -831 635
-637 93 44 199 152 245 249 90 192 56 399 -89 545 -115 115 -270 163 -431 132z
m198 -148 c88 -27 163 -95 202 -182 23 -51 29 -77 29 -140 0 -66 -5 -85 -32
-141 -47 -95 -140 -180 -228 -207 -83 -25 -125 -25 -207 0 -138 43 -230 171
-231 320 0 97 31 168 110 250 106 111 219 143 357 100z"></path>
      <path d="M1818 2750 c-56 -17 -97 -51 -122 -102 -33 -65 -33 -110 -1 -174 58
-116 204 -147 301 -62 90 80 95 200 10 284 -55 56 -121 74 -188 54z m87 -155
c14 -13 25 -28 25 -33 0 -19 -42 -62 -61 -62 -25 0 -59 35 -59 60 0 24 34 60
55 60 9 0 27 -11 40 -25z"></path>
      <path d="M713 2106 c-84 -21 -162 -65 -228 -130 -107 -105 -157 -251 -136
-396 21 -144 121 -295 247 -376 188 -121 437 -94 594 65 150 152 183 377 82
565 -37 69 -165 197 -229 230 -103 52 -225 67 -330 42z m250 -160 c69 -33 160
-128 194 -203 81 -176 -18 -396 -204 -453 -82 -25 -124 -25 -207 0 -88 27
-181 112 -228 207 -27 56 -32 75 -32 141 0 63 6 89 29 140 77 172 279 247 448
168z"></path>
      <path d="M2665 2605 c-14 -13 -25 -33 -25 -45 0 -11 11 -32 25 -45 24 -25 25
-25 223 -25 179 0 202 2 223 18 15 13 22 30 22 52 0 22 -7 39 -22 52 -21 16
-44 18 -223 18 -198 0 -199 0 -223 -25z"></path>
      <path d="M3322 2607 c-28 -30 -28 -68 1 -95 22 -21 32 -22 225 -22 189 0 203
1 222 20 11 11 20 33 20 50 0 17 -9 39 -20 50 -19 19 -33 20 -223 20 -200 0
-204 0 -225 -23z"></path>
      <path d="M3980 2610 c-11 -11 -20 -33 -20 -50 0 -17 9 -39 20 -50 19 -19 33
-20 223 -20 200 0 204 0 225 23 28 30 28 68 -1 95 -22 21 -32 22 -225 22 -189
0 -203 -1 -222 -20z"></path>
      <path d="M4639 2612 c-15 -13 -22 -30 -22 -52 0 -22 7 -39 22 -52 21 -16 44
-18 223 -18 198 0 199 0 223 25 14 13 25 34 25 45 0 12 -11 32 -25 45 -24 25
-25 25 -223 25 -179 0 -202 -2 -223 -18z"></path>
    </g>
  </symbol>
</svg>